<?xml version="1.0" encoding="UTF-8"?>
<svg id="Capa_1" xmlns="http://www.w3.org/2000/svg" version="1.1" viewBox="0 0 1760 1536">
  <!-- Generator: Adobe Illustrator 29.5.1, SVG Export Plug-In . SVG Version: 2.1.0 Build 141)  -->
  <defs>
    <style>
      .st0 {
        fill: #0c50f1;
      }
    </style>
  </defs>
  <path class="st0" d="M366.52,768c0,56.14,202.36,71.61,222.61,120.44,20.99,50.61-110.35,204.5-72.21,242.65,38.14,38.14,192.03-93.2,242.65-72.21,48.82,20.24,64.29,222.61,120.44,222.61,56.15,0,71.61-202.36,120.44-222.61,50.61-20.99,204.5,110.35,242.64,72.21,38.14-38.14-93.2-192.03-72.21-242.64,20.24-48.82,222.61-64.29,222.61-120.44,0-56.15-202.36-71.61-222.61-120.44-20.99-50.61,110.35-204.51,72.21-242.65-38.14-38.14-192.03,93.2-242.64,72.21-48.82-20.25-64.29-222.61-120.44-222.61-56.15,0-71.61,202.36-120.44,222.61-50.61,20.99-204.51-110.36-242.65-72.21-38.14,38.14,93.2,192.03,72.21,242.64-20.25,48.82-222.61,64.29-222.61,120.44Z"/>
</svg>